<svg width="90" height="27" viewBox="0 0 90 27" fill="none" xmlns="http://www.w3.org/2000/svg">
<g clip-path="url(#clip0_1_9)">
<path d="M26.9947 6.65895C26.9632 6.36854 26.7827 6.11151 26.513 5.98563L13.8567 0.0793852C13.6306 -0.0261362 13.3693 -0.0261362 13.1431 0.0793852L0.486896 5.98563C0.217213 6.11151 0.0367559 6.36849 0.00516797 6.65895C0.00448242 6.66501 0 6.7458 0 6.75023V21.094C0 21.439 0.210041 21.7493 0.530402 21.8773L13.1867 26.9398C13.2872 26.9801 13.3936 27.0002 13.5 27.0002C13.6064 27.0002 13.7128 26.9801 13.8133 26.9398L26.4696 21.8773C26.79 21.7493 27 21.439 27 21.094V6.75023C27 6.7458 26.9954 6.66496 26.9947 6.65895V6.65895ZM13.5 1.77506L24.0334 6.69064L19.9774 8.31307L9.24576 3.7604L13.5 1.77506ZM7.18822 4.72059L17.7533 9.20264L13.5 10.904L2.96663 6.69064L7.18822 4.72059ZM1.6875 7.99645L12.6562 12.3839V24.9102L1.6875 20.5227V7.99645ZM14.3438 24.9103V12.3839L25.3125 7.99645V20.5227L14.3438 24.9103Z" fill="#0A143A"/>
</g>
<path d="M41.4609 7.85547L36.8203 22H33.082L39.4219 4.9375H41.8008L41.4609 7.85547ZM45.3164 22L40.6641 7.85547L40.2891 4.9375H42.6914L49.0664 22H45.3164ZM45.1055 15.6484V18.4023H36.0938V15.6484H45.1055Z" fill="#0A143A"/>
<path d="M50.4375 4H53.8125V19.0938L53.4727 22H50.4375V4ZM61.8398 15.5312V15.7773C61.8398 16.7227 61.7383 17.5898 61.5352 18.3789C61.3398 19.168 61.0352 19.8516 60.6211 20.4297C60.207 21 59.6914 21.4453 59.0742 21.7656C58.4648 22.0781 57.7461 22.2344 56.918 22.2344C56.1445 22.2344 55.4727 22.0781 54.9023 21.7656C54.3398 21.4531 53.8672 21.0117 53.4844 20.4414C53.1016 19.8711 52.793 19.2031 52.5586 18.4375C52.3242 17.6719 52.1484 16.8359 52.0312 15.9297V15.3906C52.1484 14.4844 52.3242 13.6484 52.5586 12.8828C52.793 12.1172 53.1016 11.4492 53.4844 10.8789C53.8672 10.3086 54.3398 9.86719 54.9023 9.55469C55.4648 9.24219 56.1289 9.08594 56.8945 9.08594C57.7305 9.08594 58.457 9.24609 59.0742 9.56641C59.6992 9.87891 60.2148 10.3242 60.6211 10.9023C61.0352 11.4727 61.3398 12.1523 61.5352 12.9414C61.7383 13.7227 61.8398 14.5859 61.8398 15.5312ZM58.4648 15.7773V15.5312C58.4648 15.0156 58.4258 14.5312 58.3477 14.0781C58.2773 13.6172 58.1523 13.2148 57.9727 12.8711C57.793 12.5195 57.5469 12.2422 57.2344 12.0391C56.9297 11.8359 56.5352 11.7344 56.0508 11.7344C55.5898 11.7344 55.1992 11.8125 54.8789 11.9688C54.5586 12.125 54.293 12.3438 54.082 12.625C53.8789 12.9062 53.7266 13.2422 53.625 13.6328C53.5234 14.0156 53.4609 14.4375 53.4375 14.8984V16.4336C53.4609 17.0508 53.5625 17.5977 53.7422 18.0742C53.9297 18.543 54.2109 18.9141 54.5859 19.1875C54.9688 19.4531 55.4648 19.5859 56.0742 19.5859C56.5508 19.5859 56.9453 19.4922 57.2578 19.3047C57.5703 19.1172 57.8125 18.8516 57.9844 18.5078C58.1641 18.1641 58.2891 17.7617 58.3594 17.3008C58.4297 16.832 58.4648 16.3242 58.4648 15.7773Z" fill="#0A143A"/>
<path d="M67.5 9.32031V22H64.1133V9.32031H67.5ZM63.9023 6.01562C63.9023 5.52344 64.0742 5.11719 64.418 4.79688C64.7617 4.47656 65.2227 4.31641 65.8008 4.31641C66.3711 4.31641 66.8281 4.47656 67.1719 4.79688C67.5234 5.11719 67.6992 5.52344 67.6992 6.01562C67.6992 6.50781 67.5234 6.91406 67.1719 7.23438C66.8281 7.55469 66.3711 7.71484 65.8008 7.71484C65.2227 7.71484 64.7617 7.55469 64.418 7.23438C64.0742 6.91406 63.9023 6.50781 63.9023 6.01562Z" fill="#0A143A"/>
<path d="M76.5 9.32031V11.7109H69.1172V9.32031H76.5ZM70.9453 6.19141H74.3203V18.1797C74.3203 18.5469 74.3672 18.8281 74.4609 19.0234C74.5625 19.2188 74.7109 19.3555 74.9062 19.4336C75.1016 19.5039 75.3477 19.5391 75.6445 19.5391C75.8555 19.5391 76.043 19.5312 76.207 19.5156C76.3789 19.4922 76.5234 19.4688 76.6406 19.4453L76.6523 21.9297C76.3633 22.0234 76.0508 22.0977 75.7148 22.1523C75.3789 22.207 75.0078 22.2344 74.6016 22.2344C73.8594 22.2344 73.2109 22.1133 72.6562 21.8711C72.1094 21.6211 71.6875 21.2227 71.3906 20.6758C71.0938 20.1289 70.9453 19.4102 70.9453 18.5195V6.19141Z" fill="#0A143A"/>
<path d="M77.5781 15.7891V15.543C77.5781 14.6133 77.7109 13.7578 77.9766 12.9766C78.2422 12.1875 78.6289 11.5039 79.1367 10.9258C79.6445 10.3477 80.2695 9.89844 81.0117 9.57812C81.7539 9.25 82.6055 9.08594 83.5664 9.08594C84.5273 9.08594 85.3828 9.25 86.1328 9.57812C86.8828 9.89844 87.5117 10.3477 88.0195 10.9258C88.5352 11.5039 88.9258 12.1875 89.1914 12.9766C89.457 13.7578 89.5898 14.6133 89.5898 15.543V15.7891C89.5898 16.7109 89.457 17.5664 89.1914 18.3555C88.9258 19.1367 88.5352 19.8203 88.0195 20.4062C87.5117 20.9844 86.8867 21.4336 86.1445 21.7539C85.4023 22.0742 84.5508 22.2344 83.5898 22.2344C82.6289 22.2344 81.7734 22.0742 81.0234 21.7539C80.2812 21.4336 79.6523 20.9844 79.1367 20.4062C78.6289 19.8203 78.2422 19.1367 77.9766 18.3555C77.7109 17.5664 77.5781 16.7109 77.5781 15.7891ZM80.9531 15.543V15.7891C80.9531 16.3203 81 16.8164 81.0938 17.2773C81.1875 17.7383 81.3359 18.1445 81.5391 18.4961C81.75 18.8398 82.0234 19.1094 82.3594 19.3047C82.6953 19.5 83.1055 19.5977 83.5898 19.5977C84.0586 19.5977 84.4609 19.5 84.7969 19.3047C85.1328 19.1094 85.4023 18.8398 85.6055 18.4961C85.8086 18.1445 85.957 17.7383 86.0508 17.2773C86.1523 16.8164 86.2031 16.3203 86.2031 15.7891V15.543C86.2031 15.0273 86.1523 14.543 86.0508 14.0898C85.957 13.6289 85.8047 13.2227 85.5938 12.8711C85.3906 12.5117 85.1211 12.2305 84.7852 12.0273C84.4492 11.8242 84.043 11.7227 83.5664 11.7227C83.0898 11.7227 82.6836 11.8242 82.3477 12.0273C82.0195 12.2305 81.75 12.5117 81.5391 12.8711C81.3359 13.2227 81.1875 13.6289 81.0938 14.0898C81 14.543 80.9531 15.0273 80.9531 15.543Z" fill="#0A143A"/>
<defs>
<clipPath id="clip0_1_9">
<rect width="27" height="27" fill="white"/>
</clipPath>
</defs>
</svg>
